<?xml version="1.0" encoding="utf-8"?>
<!-- Generator: Adobe Illustrator 16.0.0, SVG Export Plug-In . SVG Version: 6.00 Build 0)  -->
<!DOCTYPE svg PUBLIC "-//W3C//DTD SVG 1.0//EN" "http://www.w3.org/TR/2001/REC-SVG-20010904/DTD/svg10.dtd">
<svg version="1.0" id="Layer_1" xmlns="http://www.w3.org/2000/svg" xmlns:xlink="http://www.w3.org/1999/xlink" x="0px" y="0px"
	 width="595.279px" height="841.89px" viewBox="0 0 595.279 841.89" enable-background="new 0 0 595.279 841.89"
	 xml:space="preserve">
<path stroke="#FFFFFF" stroke-miterlimit="10" d="M457.426,154.436v-3.031L230.234,1L3.883,151.404v3.031h13.504v68.031H3.883
	v68.031h13.504v68.033H3.883v73.032h96.377v-13.504h96.379v13.504h68.031v-13.504h96.379v13.504h96.377V358.53h-12.504v-68.033
	h12.504v-68.031h-12.504v-68.031L457.426,154.436L457.426,154.436z M230.654,63.357c10.223,0,18.509,8.286,18.509,18.508
	c0,10.222-8.286,18.508-18.509,18.508c-10.222,0-18.508-8.286-18.508-18.508C212.146,71.643,220.433,63.357,230.654,63.357z
	 M353.628,344.08c0,11.67-9.463,21.13-21.132,21.13H128.812c-11.671,0-21.131-9.46-21.131-21.13V173.932
	c0-11.67,9.46-21.13,21.131-21.13h203.686c11.669,0,21.132,9.46,21.132,21.13L353.628,344.08L353.628,344.08z"/>
</svg>
