<?xml version="1.0" encoding="utf-8"?>
<!-- Generator: Adobe Illustrator 16.0.0, SVG Export Plug-In . SVG Version: 6.00 Build 0)  -->
<!DOCTYPE svg PUBLIC "-//W3C//DTD SVG 1.1//EN" "http://www.w3.org/Graphics/SVG/1.1/DTD/svg11.dtd">
<svg version="1.1" id="Layer_1" xmlns="http://www.w3.org/2000/svg" xmlns:xlink="http://www.w3.org/1999/xlink" x="0px" y="0px"
	 width="595.28px" height="841.89px" viewBox="0 0 595.28 841.89" enable-background="new 0 0 595.28 841.89" xml:space="preserve">
<g>
	<path fill="#00FF68" d="M234.875,137.702c-48.435,0-77.979,35.727-77.979,74.229v207.538h155.221V211.931
		C312.118,171.287,287.317,137.702,234.875,137.702z M270.616,164.731l-32.479,39.965l-0.014-51.511
		C250.141,153.823,261.378,158.214,270.616,164.731z M231.909,153.188l-0.026,51.509l-31.752-40.385
		C208.842,158.159,219.577,153.83,231.909,153.188z M193.684,169.508l28.697,35.13l-47.153-0.082
		C175.228,194.277,181.907,180.3,193.684,169.508z M294.468,407.601H174.526V218.71h119.942V407.601z M247.735,204.668
		l28.731-35.294c11.139,9.922,18.182,23.028,18.182,35.379L247.735,204.668z"/>
	<path fill="#15FF49" d="M327.806,218.331v138.004h92.488V218.331H327.806z M370.567,335.607h-23.756v-44.978h23.756V335.607z
		 M370.567,284.711h-23.756v-44.978h23.756V284.711z M401.286,335.607H377.53v-44.978h23.756V335.607z M401.286,284.711H377.53
		v-44.978h23.756V284.711z"/>
	<path fill="#15FF49" d="M51.624,218.331v138.004h92.489V218.331H51.624z M94.387,335.607H70.631v-44.978h23.756V335.607z
		 M94.387,284.711H70.631v-44.978h23.756V284.711z M125.105,335.607H101.35v-44.978h23.756V335.607z M125.105,284.711H101.35
		v-44.978h23.756V284.711z"/>
	<path fill="#3FFF65" d="M232.16,34.247c-23.869,0-43.218,19.21-43.218,42.906c0,23.696,19.349,42.907,43.218,42.907
		c23.868,0,43.218-19.21,43.218-42.907C275.378,53.457,256.028,34.247,232.16,34.247z M229.077,101.928
		c-11.322-1.396-20.278-10.371-21.676-21.691h21.676V101.928z M229.077,74.07h-21.676c1.397-11.321,10.354-20.296,21.676-21.691
		V74.07z M235.268,101.928V80.236h21.676C255.546,91.557,246.59,100.532,235.268,101.928z M235.268,74.07V52.379
		c11.322,1.396,20.278,10.371,21.676,21.691H235.268z"/>
</g>
</svg>
