<?xml version="1.0" encoding="utf-8"?>
<!-- Generator: Adobe Illustrator 16.0.0, SVG Export Plug-In . SVG Version: 6.00 Build 0)  -->
<!DOCTYPE svg PUBLIC "-//W3C//DTD SVG 1.0//EN" "http://www.w3.org/TR/2001/REC-SVG-20010904/DTD/svg10.dtd">
<svg version="1.0" id="Layer_1" xmlns="http://www.w3.org/2000/svg" xmlns:xlink="http://www.w3.org/1999/xlink" x="0px" y="0px"
	 width="595.279px" height="841.89px" viewBox="0 0 595.279 841.89" enable-background="new 0 0 595.279 841.89"
	 xml:space="preserve">
<path stroke="#FFFFFF" stroke-miterlimit="10" d="M458.778,158.272v-3.031L231.587,4.836L5.235,155.241v3.031h13.504v68.031H5.235
	v68.031h13.504v68.033H5.235v73.031h96.377v-13.504h96.38v13.504h68.03v-13.504h96.379v13.504h96.377v-73.031h-13.504v-68.033
	h13.504v-68.031h-13.504v-68.031H458.778z M231.526,44.503c19.33,0,35,15.67,35,35s-15.67,35-35,35s-35-15.67-35-35
	S212.196,44.503,231.526,44.503z M124.855,339.555H65.168V239.196h59.688L124.855,339.555L124.855,339.555z M305.921,412.807
	H161.067c0,0,0-196.594,0-215.343s21.604-51.961,71.557-51.961c35.834,0,73.298,23.034,73.298,52.497
	S305.921,412.807,305.921,412.807z M401.066,339.555h-59.688V239.196h59.688V339.555z"/>
</svg>
