<?xml version="1.0" encoding="utf-8"?>
<!-- Generator: Adobe Illustrator 16.0.0, SVG Export Plug-In . SVG Version: 6.00 Build 0)  -->
<!DOCTYPE svg PUBLIC "-//W3C//DTD SVG 1.1//EN" "http://www.w3.org/Graphics/SVG/1.1/DTD/svg11.dtd">
<svg version="1.1" id="Layer_1" xmlns="http://www.w3.org/2000/svg" xmlns:xlink="http://www.w3.org/1999/xlink" x="0px" y="0px"
	 width="595.28px" height="841.89px" viewBox="0 0 595.28 841.89" enable-background="new 0 0 595.28 841.89" xml:space="preserve">
<g>
	<path fill="#15FF49" d="M333.321,215.489V77.485h-92.489v138.004H333.321z M290.559,98.213h23.756v44.977h-23.756V98.213z
		 M290.559,149.108h23.756v44.978h-23.756V149.108z M259.84,98.213h23.756v44.977H259.84V98.213z M259.84,149.108h23.756v44.978
		H259.84V149.108z"/>
	<path fill="#15FF49" d="M179.108,215.489V77.485H86.619v138.004H179.108z M136.346,98.213h23.756v44.977h-23.756V98.213z
		 M136.346,149.108h23.756v44.979h-23.756V149.108z M105.627,98.213h23.756v44.977h-23.756V98.213z M105.627,149.108h23.756v44.979
		h-23.756V149.108z"/>
</g>
</svg>
