<?xml version="1.0" encoding="utf-8"?>
<!-- Generator: Adobe Illustrator 16.0.0, SVG Export Plug-In . SVG Version: 6.00 Build 0)  -->
<!DOCTYPE svg PUBLIC "-//W3C//DTD SVG 1.0//EN" "http://www.w3.org/TR/2001/REC-SVG-20010904/DTD/svg10.dtd">
<svg version="1.0" id="Layer_1" xmlns="http://www.w3.org/2000/svg" xmlns:xlink="http://www.w3.org/1999/xlink" x="0px" y="0px"
	 width="595.28px" height="841.89px" viewBox="0 0 595.28 841.89" enable-background="new 0 0 595.28 841.89" xml:space="preserve">
<path fill="#231F20" stroke="#FFFFFF" stroke-miterlimit="10" d="M3.696,307.637c0,20.111,17.206,36.416,38.431,36.416
	s38.431-16.305,38.431-36.416h0.023c0,20.111,17.205,36.416,38.431,36.416c21.224,0,38.431-16.305,38.431-36.416h0.025
	c0,20.111,17.205,36.416,38.43,36.416s38.431-16.305,38.431-36.416h0.023c0,20.111,17.205,36.416,38.43,36.416
	c21.225,0,38.429-16.305,38.429-36.416h0.084c0,20.111,17.205,36.416,38.43,36.416c21.227,0,38.432-16.305,38.432-36.416h0.023
	c0,20.111,17.205,36.416,38.43,36.416s38.43-16.305,38.43-36.416l-0.016-0.045V3.502H284.842l-0.048,0.003v38.33H183.942V3.507
	l-0.072-0.005H3.698v304.089"/>
</svg>
